<?xml version="1.0" standalone="no"?>
<!DOCTYPE svg PUBLIC "-//W3C//DTD SVG 20010904//EN"
 "http://www.w3.org/TR/2001/REC-SVG-20010904/DTD/svg10.dtd">
<svg version="1.0" xmlns="http://www.w3.org/2000/svg"
 width="260.000000pt" height="260.000000pt" viewBox="0 0 260.000000 260.000000"
 preserveAspectRatio="xMidYMid meet">
<metadata>
Created by potrace 1.14, written by Peter Selinger 2001-2017
</metadata>
<g transform="translate(0.000000,260.000000) scale(0.100000,-0.100000)"
fill="#000000" stroke="none">
<path d="M1190 2591 c-8 -5 -40 -12 -70 -16 -468 -60 -892 -421 -1040 -885
-25 -78 -40 -155 -54 -281 -18 -153 4 -345 59 -514 132 -407 499 -749 905
-843 171 -40 207 -45 320 -45 192 0 447 60 580 136 19 11 55 32 80 46 25 13
47 27 50 30 3 4 32 26 65 51 241 179 423 458 480 735 9 44 20 88 26 97 12 22
12 372 0 396 -5 9 -17 53 -26 97 -33 154 -86 277 -183 425 -61 92 -210 247
-310 323 -128 97 -334 191 -474 216 -35 6 -88 16 -118 23 -71 14 -271 21 -290
9z m691 -877 c83 -42 169 -165 169 -239 0 -34 -28 -101 -61 -147 -18 -25 -20
-34 -10 -47 29 -40 71 -139 71 -167 0 -45 -55 -147 -102 -189 -85 -77 -71 -75
-584 -76 l-457 0 -74 35 c-173 83 -292 263 -280 426 12 170 136 336 294 397
57 22 67 22 531 22 409 1 477 -1 503 -15z"/>
<path d="M1095 1570 c-201 -6 -228 -13 -292 -79 -59 -60 -76 -105 -77 -196 -1
-72 2 -86 30 -135 36 -65 109 -124 170 -139 24 -6 117 -11 209 -11 l165 0 -2
282 c-2 178 -7 282 -13 283 -5 0 -91 -2 -190 -5z"/>
<path d="M1464 1571 c-2 -2 -4 -49 -4 -103 l0 -98 165 0 c214 0 245 14 245
107 0 30 -7 46 -30 68 l-30 29 -171 0 c-94 1 -172 -1 -175 -3z"/>
<path d="M1462 1113 l3 -98 145 -3 c80 -2 160 0 179 3 79 15 110 113 53 168
l-28 27 -177 0 -178 0 3 -97z"/>
</g>
</svg>
